{
  "accessors": [
    {
      "bufferView": 2,
      "componentType": 5126,
      "count": 6652,
      "max": [
        102.71444702148438,
        108.29678344726563,
        187.93190002441406
      ],
      "min": [
        -102.72450256347656,
        -108.24067687988281,
        -0.3922800123691559
      ],
      "type": "VEC3"
    },
    {
      "bufferView": 2,
      "byteOffset": 79824,
      "componentType": 5126,
      "count": 6652,
      "max": [
        1.0,
        1.0,
        1.0
      ],
      "min": [
        -1.0,
        -1.0,
        -1.0
      ],
      "type": "VEC3"
    },
    {
      "bufferView": 1,
      "componentType": 5126,
      "count": 6652,
      "max": [
        0.9992600083351135,
        0.9957600235939026
      ],
      "min": [
        0.003229999914765358,
        0.0009500000160187483
      ],
      "type": "VEC2"
    },
    {
      "bufferView": 0,
      "componentType": 5125,
      "count": 25794,
      "type": "SCALAR"
    },
    {
      "bufferView": 2,
      "byteOffset": 159648,
      "componentType": 5126,
      "count": 4,
      "max": [
        146.62796020507813,
        147.01950073242188,
        -0.040119998157024384
      ],
      "min": [
        -134.6232147216797,
        -134.231689453125,
        -0.040119998157024384
      ],
      "type": "VEC3"
    },
    {
      "bufferView": 2,
      "byteOffset": 159696,
      "componentType": 5126,
      "count": 4,
      "max": [
        0.0,
        0.0,
        1.0
      ],
      "min": [
        0.0,
        0.0,
        1.0
      ],
      "type": "VEC3"
    },
    {
      "bufferView": 1,
      "byteOffset": 53216,
      "componentType": 5126,
      "count": 4,
      "max": [
        1.0,
        1.0
      ],
      "min": [
        0.0,
        0.0
      ],
      "type": "VEC2"
    },
    {
      "bufferView": 0,
      "byteOffset": 103176,
      "componentType": 5125,
      "count": 6,
      "type": "SCALAR"
    }
  ],
  "asset": {
    "extras": {
      "author": "luyssport (https://sketchfab.com/luyssport)",
      "license": "CC-BY-NC-4.0 (http://creativecommons.org/licenses/by-nc/4.0/)",
      "source": "https://sketchfab.com/3d-models/mech-90b0d96da3ad400faea5d33fe6613a2c",
      "title": "mecH"
    },
    "generator": "Sketchfab-12.68.0",
    "version": "2.0"
  },
  "bufferViews": [
    {
      "buffer": 0,
      "byteLength": 103200,
      "name": "floatBufferViews",
      "target": 34963
    },
    {
      "buffer": 0,
      "byteLength": 53248,
      "byteOffset": 103200,
      "byteStride": 8,
      "name": "floatBufferViews",
      "target": 34962
    },
    {
      "buffer": 0,
      "byteLength": 159744,
      "byteOffset": 156448,
      "byteStride": 12,
      "name": "floatBufferViews",
      "target": 34962
    }
  ],
  "buffers": [
    {
      "byteLength": 316192,
      "uri": "scene.bin"
    }
  ],
  "images": [
    {
      "uri": "textures/suelo_baseColor.png"
    },
    {
      "uri": "textures/fullrender_baseColor.jpeg"
    }
  ],
  "materials": [
    {
      "alphaMode": "BLEND",
      "name": "suelo",
      "pbrMetallicRoughness": {
        "baseColorTexture": {
          "index": 0
        },
        "metallicFactor": 0.0,
        "roughnessFactor": 0.6
      }
    },
    {
      "doubleSided": true,
      "name": "fullrender",
      "pbrMetallicRoughness": {
        "baseColorTexture": {
          "index": 1
        },
        "metallicFactor": 0.0,
        "roughnessFactor": 0.6
      }
    }
  ],
  "meshes": [
    {
      "name": "fullrender",
      "primitives": [
        {
          "attributes": {
            "NORMAL": 1,
            "POSITION": 0,
            "TEXCOORD_0": 2
          },
          "indices": 3,
          "material": 1,
          "mode": 4
        }
      ]
    },
    {
      "name": "fullrender.001",
      "primitives": [
        {
          "attributes": {
            "NORMAL": 5,
            "POSITION": 4,
            "TEXCOORD_0": 6
          },
          "indices": 7,
          "material": 0,
          "mode": 4
        }
      ]
    }
  ],
  "nodes": [
    {
      "children": [
        1
      ],
      "matrix": [
        1.0,
        0.0,
        0.0,
        0.0,
        0.0,
        2.220446049250313e-16,
        -1.0,
        0.0,
        0.0,
        1.0,
        2.220446049250313e-16,
        0.0,
        0.0,
        0.0,
        0.0,
        1.0
      ],
      "name": "Sketchfab_model"
    },
    {
      "children": [
        2,
        4
      ],
      "name": "Root"
    },
    {
      "children": [
        3
      ],
      "matrix": [
        0.027230000000000004,
        0.0,
        0.0,
        0.0,
        0.0,
        0.027230000000000004,
        0.0,
        0.0,
        0.0,
        0.0,
        0.027230000000000004,
        0.0,
        0.0,
        0.0,
        0.0,
        1.0
      ],
      "name": "fullrender"
    },
    {
      "mesh": 0,
      "name": "fullrender"
    },
    {
      "children": [
        5
      ],
      "matrix": [
        0.027230000000000004,
        0.0,
        0.0,
        0.0,
        0.0,
        0.027230000000000004,
        0.0,
        0.0,
        0.0,
        0.0,
        0.027230000000000004,
        0.0,
        0.0,
        0.0,
        0.0,
        1.0
      ],
      "name": "fullrender.001"
    },
    {
      "mesh": 1,
      "name": "fullrender.001"
    }
  ],
  "samplers": [
    {
      "magFilter": 9729,
      "minFilter": 9987,
      "wrapS": 10497,
      "wrapT": 10497
    }
  ],
  "scene": 0,
  "scenes": [
    {
      "name": "Sketchfab_Scene",
      "nodes": [
        0
      ]
    }
  ],
  "textures": [
    {
      "sampler": 0,
      "source": 0
    },
    {
      "sampler": 0,
      "source": 1
    }
  ]
}
